<?xml version="1.0" standalone="no"?>
<!DOCTYPE svg PUBLIC "-//W3C//DTD SVG 20010904//EN"
 "http://www.w3.org/TR/2001/REC-SVG-20010904/DTD/svg10.dtd">
<svg version="1.0" xmlns="http://www.w3.org/2000/svg"
 width="534.000000pt" height="534.000000pt" viewBox="0 0 534.000000 534.000000"
 preserveAspectRatio="xMidYMid meet">
<metadata>
Created by potrace 1.11, written by Peter Selinger 2001-2013
</metadata>
<g transform="translate(0.000000,534.000000) scale(0.100000,-0.100000)"
fill="#000000" stroke="none">
<path d="M0 2670 l0 -2670 2670 0 2670 0 0 2670 0 2670 -2670 0 -2670 0 0
-2670z m5320 5 l0 -2655 -2655 0 -2655 0 0 2655 0 2655 2655 0 2655 0 0 -2655z"/>
<path d="M1417 4084 c-4 -4 -7 -641 -7 -1416 l0 -1409 728 4 c652 3 735 5 802
21 254 60 416 145 584 306 244 235 376 576 393 1020 27 712 -270 1225 -814
1404 -213 70 -195 69 -973 73 -388 2 -709 1 -713 -3z m1344 -552 c276 -75 442
-265 506 -577 14 -71 18 -137 18 -315 0 -199 -3 -235 -22 -312 -72 -281 -233
-456 -477 -518 -71 -18 -112 -20 -413 -20 l-333 0 0 886 0 886 323 -4 c287 -4
330 -7 398 -26z"/>
</g>
</svg>
